PathFileType  4	(X/Y/Z) C:\Users\antoi\Documents\MyRepositories\mobilecap\ResultsAnalysis
DataRate	CameraRate	NumFrames	NumMarkers	Units	OrigDataRate	OrigDataStartFrame	OrigNumFrames
100.0	100.0	7	51	mm	100.0	112	149
Frame#	Time	r_knee			r_shank_antsup			r_ankle			r_calc			r_5meta			r_toe			L_knee			L_shank_antsup			L_ankle			L_calc			L_5meta			L_toe			r_sh2			r_sh3			r_sh4			L_sh2			L_sh3			r_thigh1			r_thigh2			r_thigh3			r_thigh4			r_thigh5			L_thigh1			L_thigh2			L_thigh3			L_thigh4			r.ASIS			r.PSIS			L.ASIS			L.PSIS			C7			R_Shoulder			L_Shoulder			R_Sternum			L_Sternum			R_humerus			R_elbow_med			R_elbow_lat			R_forearm			R_wrist_radius			R_wrist_ulna			L_humerus			L_elbow_med			L_elbow_lat			L_forearm			L_wrist_radius			L_wrist_ulna			R_HJC			L_HJC			R_HJC_reg			L_HJC_reg			
		X1	Y1	Z1	X2	Y2	Z2	X3	Y3	Z3	X4	Y4	Z4	X5	Y5	Z5	X6	Y6	Z6	X7	Y7	Z7	X8	Y8	Z8	X9	Y9	Z9	X10	Y10	Z10	X11	Y11	Z11	X12	Y12	Z12	X13	Y13	Z13	X14	Y14	Z14	X15	Y15	Z15	X16	Y16	Z16	X17	Y17	Z17	X18	Y18	Z18	X19	Y19	Z19	X20	Y20	Z20	X21	Y21	Z21	X22	Y22	Z22	X23	Y23	Z23	X24	Y24	Z24	X25	Y25	Z25	X26	Y26	Z26	X27	Y27	Z27	X28	Y28	Z28	X29	Y29	Z29	X30	Y30	Z30	X31	Y31	Z31	X32	Y32	Z32	X33	Y33	Z33	X34	Y34	Z34	X35	Y35	Z35	X36	Y36	Z36	X37	Y37	Z37	X38	Y38	Z38	X39	Y39	Z39	X40	Y40	Z40	X41	Y41	Z41	X42	Y42	Z42	X43	Y43	Z43	X44	Y44	Z44	X45	Y45	Z45	X46	Y46	Z46	X47	Y47	Z47	X48	Y48	Z48	X49	Y49	Z49	X50	Y50	Z50	X51	Y51	Z51	

112	1.11000000	1218.15096	490.85624	-57.10624	1271.00938	441.92119	-69.64258	1277.27162	104.36732	-86.44016	1221.12998	64.66889	-120.14449	1396.77647	77.88906	-93.40175	1418.61391	118.89575	-148.87410	971.92379	471.56732	-295.76572	989.61493	382.85281	-275.76105	856.36904	102.94527	-275.19039	790.63627	72.04279	-238.69660	952.84809	42.24915	-300.64296	999.18554	51.75167	-241.78572	1277.95140	329.88202	-62.90492	1204.91425	438.87763	-28.78452	1202.61987	322.04545	-27.18666	920.47355	414.84061	-325.14952	885.34507	297.52248	-331.75844	1164.87076	732.75670	-3.54790	1210.11852	630.48097	-24.81668	1160.16295	583.15970	-20.59826	1061.03927	686.07598	-6.49450	1108.22379	586.13977	-37.99299	1071.37144	729.35502	-357.90020	1048.15960	597.43536	-323.91024	960.99703	745.52559	-362.01152	934.51003	622.57310	-308.31545	1150.51444	917.57572	-74.00117	938.59323	965.41312	-132.38904	1138.17278	910.22303	-293.18592	937.94027	966.99178	-213.82852	1075.11348	1358.58037	-307.76891	1132.93197	1388.89971	-165.67071	1104.50028	1264.12825	-417.76396	1193.82738	1295.12548	-263.10144	1188.91923	1277.23468	-299.58506	1139.01751	1309.13474	-60.69225	1002.72988	1149.34981	17.91412	1051.34424	1164.86785	61.68332	1105.89288	1089.56521	84.62069	1130.94714	950.37150	121.58324	1108.38263	959.25891	152.45333	1106.53378	1148.28060	-452.68505	1062.19337	935.30199	-386.21998	1087.76718	944.65402	-447.12274	1165.82781	869.54904	-438.39547	1231.54851	766.90190	-397.74270	1202.88225	746.28555	-419.65420	1059.25906	838.87332	-70.73328	1046.29463	836.19651	-277.81793	1068.86987	850.51481	-104.41449	1067.70645	853.32562	-249.35709	
113	1.12000000	1225.94523	488.16898	-58.00764	1279.63260	441.66150	-70.10893	1302.01674	104.78686	-88.98043	1248.55780	62.73562	-123.49746	1422.73006	83.71222	-94.75172	1443.30062	125.98506	-149.77792	975.22392	472.26992	-296.46388	992.34067	383.45472	-276.60314	856.73309	104.01916	-275.32882	791.13222	73.40986	-238.83627	952.86649	42.37991	-300.85336	999.16994	51.66348	-241.88257	1291.71083	329.98078	-63.92826	1213.12528	435.33382	-30.16246	1216.01087	318.53465	-29.59432	923.03419	415.87189	-325.61584	886.97452	298.84901	-332.17273	1174.15166	730.37454	-4.39129	1218.60689	627.78595	-25.78963	1168.47818	580.81781	-20.72278	1070.07085	684.36705	-6.32345	1116.45544	583.85371	-37.65045	1077.51303	728.75101	-358.88205	1052.88257	597.27103	-325.03902	967.23104	746.57392	-361.39034	939.94161	623.61541	-307.85264	1161.11602	915.57198	-74.53954	949.14098	963.98530	-131.75626	1147.64630	909.06680	-293.82775	948.18557	965.81631	-213.15319	1085.91679	1357.61545	-305.77243	1144.03576	1387.17004	-163.68580	1114.41620	1263.81976	-416.33981	1204.47125	1293.98110	-261.81912	1199.40811	1276.27732	-298.37285	1150.30403	1307.04300	-59.00388	1014.67230	1146.63873	19.28357	1063.07448	1162.31764	63.08728	1118.09871	1087.37673	85.93354	1143.95524	948.32536	122.62755	1121.18673	956.91653	153.49949	1115.58504	1148.10161	-451.78067	1069.70254	935.06178	-386.42723	1095.51731	944.48321	-447.14705	1172.91669	868.80919	-438.59833	1237.83463	765.41980	-398.18242	1209.09508	745.09439	-420.26017	1069.83464	836.99891	-71.17187	1055.82107	835.11874	-278.19600	1079.12110	848.78395	-104.87167	1077.41856	852.04638	-249.89502	
114	1.13000000	1233.62251	485.43898	-59.02194	1287.90265	441.19957	-70.59910	1324.97427	105.49218	-91.33978	1274.55065	61.33454	-126.89470	1446.78224	89.61808	-95.44029	1466.33807	132.91004	-150.02017	978.78160	472.84763	-297.05143	995.29045	383.96439	-277.40644	857.19909	105.11743	-275.51726	791.68677	74.85488	-238.98529	952.87240	42.49386	-301.07525	999.10531	51.46894	-241.94036	1304.70409	330.03818	-64.90720	1221.06094	431.80316	-31.69451	1228.68780	315.21816	-32.10851	925.94248	416.86818	-326.08626	888.85220	300.16632	-332.59598	1183.59472	727.80161	-5.10124	1227.14011	624.88397	-26.75801	1176.80577	578.33342	-20.98565	1079.17440	682.54743	-6.29283	1124.67449	581.53769	-37.65259	1083.79240	728.07753	-359.84553	1057.91152	597.08044	-326.12726	973.80513	747.44266	-360.90664	945.66857	624.46382	-307.53808	1171.91795	913.46670	-75.18216	959.86622	962.43728	-131.03107	1157.22107	907.80967	-294.54463	958.57315	964.48141	-212.41233	1096.82426	1356.67599	-303.55388	1155.23876	1385.32442	-161.45978	1124.44512	1263.64923	-414.77521	1215.21370	1292.82992	-260.37820	1210.02121	1275.35648	-297.00478	1161.69438	1304.78179	-57.12359	1026.73651	1143.74040	20.66764	1074.86049	1159.50583	64.55922	1130.32894	1084.90429	87.33948	1156.94948	945.97794	123.70763	1134.00039	954.29801	154.57804	1124.72236	1148.04652	-450.81470	1077.26323	935.00954	-386.64873	1103.36866	944.43790	-447.18063	1179.95416	868.09486	-438.86204	1243.89578	763.82527	-398.74918	1215.08215	743.86362	-421.02419	1080.65111	835.00820	-71.63168	1065.45022	833.92419	-278.57640	1089.55530	846.99946	-105.35960	1087.25087	850.64315	-250.45143	
115	1.14000000	1241.34134	482.70924	-60.15569	1296.00102	440.48678	-71.15919	1345.96794	106.24453	-93.49918	1298.74657	60.29076	-130.27389	1468.72435	95.18611	-95.50441	1487.57182	139.25091	-149.64494	982.64023	473.26837	-297.48736	998.51428	384.33995	-278.14201	857.82078	106.24687	-275.75160	792.31322	76.40790	-239.13602	952.90714	42.55944	-301.29644	999.04469	51.13922	-241.98263	1316.99592	329.93472	-65.88037	1228.93089	428.33561	-33.34686	1240.76930	312.07658	-34.64822	929.26052	417.81569	-326.52495	891.04076	301.45602	-333.01408	1193.30397	725.07689	-5.68851	1235.84025	621.84195	-27.79572	1185.26388	575.73740	-21.46528	1088.47586	680.64821	-6.46289	1132.98813	579.24439	-38.06177	1090.37097	727.29057	-360.72534	1063.33932	596.77925	-327.08218	980.82439	748.09128	-360.59723	951.72331	625.12676	-307.39026	1182.91186	911.23085	-75.91624	970.75701	960.78799	-130.20447	1166.92951	906.40796	-295.31704	969.08561	963.00728	-211.58943	1107.81498	1355.79734	-301.12352	1166.57512	1383.35303	-158.99887	1134.64347	1263.60156	-413.07110	1226.08299	1291.62125	-258.78191	1220.76847	1274.41642	-295.48563	1173.23788	1302.31174	-55.09132	1038.94076	1140.62688	22.08641	1086.77128	1156.40814	66.09385	1142.62321	1082.09555	88.81881	1169.95551	943.27176	124.81417	1146.86461	951.36034	155.68123	1134.03632	1148.10286	-449.77807	1084.88230	935.17299	-386.87628	1111.35111	944.52953	-447.20632	1186.99511	867.40944	-439.17364	1249.76081	762.14521	-399.45604	1220.86231	742.62473	-421.93937	1091.67627	832.89364	-72.09301	1075.16468	832.59902	-278.93832	1100.16819	845.14431	-105.85987	1097.18934	849.10100	-251.00200	
116	1.15000000	1249.26915	480.00652	-61.38471	1304.14472	439.46428	-71.80321	1364.82371	106.77325	-95.48622	1320.72656	59.38152	-133.60875	1488.33727	99.95179	-95.04309	1506.83469	144.56802	-148.74299	986.86470	473.52895	-297.78162	1002.08551	384.57056	-278.81217	858.62894	107.43681	-276.01581	793.02205	78.10901	-239.28079	953.01496	42.55704	-301.50093	999.06560	50.68011	-242.03996	1328.67086	329.53083	-66.87670	1236.94660	424.97187	-35.05891	1252.35894	309.08332	-37.13481	933.02499	418.71831	-326.90752	893.58933	302.72603	-333.42065	1203.34209	722.25198	-6.20327	1244.81339	618.74215	-28.97673	1193.95184	573.06658	-22.21455	1098.08156	678.71252	-6.87980	1141.49006	577.03566	-38.87259	1097.40919	726.36524	-361.47982	1069.24724	596.30265	-327.84114	988.34303	748.50669	-360.47255	958.13437	625.63440	-307.40097	1194.08058	908.84884	-76.73000	981.79749	959.05927	-129.28208	1176.81235	904.83661	-296.13579	979.70876	961.42059	-210.67621	1118.86762	1355.01116	-298.49399	1178.07297	1381.25627	-156.31128	1145.06142	1263.66276	-411.22725	1237.10551	1290.31727	-257.03053	1231.65355	1273.41207	-293.81739	1184.96427	1299.60039	-52.95625	1051.30024	1137.26072	23.55281	1098.86594	1153.01160	67.68296	1155.02810	1078.91948	90.33993	1183.00388	940.16835	125.92626	1159.80890	948.06161	156.78757	1143.62184	1148.27265	-448.65865	1092.56612	935.57440	-387.10766	1119.49336	944.78542	-447.20725	1194.09624	866.77568	-439.52274	1255.46675	760.41913	-400.32043	1226.46260	741.42613	-423.00451	1102.87697	830.65511	-72.54691	1084.95804	831.14352	-279.27318	1110.95240	843.20714	-106.36674	1107.22913	847.41750	-251.53986	
117	1.16000000	1257.57105	477.35163	-62.66752	1312.55304	438.07518	-72.52421	1381.38344	106.80574	-97.35762	1340.07674	58.35713	-136.88479	1505.42064	103.46605	-94.20917	1523.95709	148.45258	-147.45643	991.52709	473.65291	-297.98623	1006.07656	384.67435	-279.44515	859.63909	108.72765	-276.29454	793.82218	80.00357	-239.41668	953.22917	42.48063	-301.67135	999.23769	50.11857	-242.14257	1339.82004	328.69096	-67.91369	1245.29206	421.74697	-36.76434	1263.51645	306.21294	-39.50635	937.24893	419.59339	-327.22603	896.52895	304.00629	-333.81466	1213.72849	719.39748	-6.72082	1254.14332	615.68021	-30.34172	1202.95359	570.37351	-23.24412	1108.05854	676.78980	-7.56372	1150.25265	574.99211	-40.01405	1105.02830	725.29916	-362.09897	1075.68744	595.62247	-328.38615	996.36718	748.70414	-360.52098	964.92860	626.03393	-307.53155	1205.41075	906.33288	-77.61188	992.97470	957.27583	-128.28616	1186.91741	903.09666	-297.00416	990.44168	959.75396	-209.68162	1129.97217	1354.33771	-295.67499	1189.74823	1379.04725	-153.40616	1155.73176	1263.82896	-409.24047	1248.29589	1288.90324	-255.12249	1242.67796	1272.32397	-291.99852	1196.87951	1296.63459	-50.76778	1063.82194	1133.63325	25.06809	1111.18625	1149.32083	69.31493	1167.58937	1075.37506	91.86444	1196.12350	936.65774	127.01426	1172.85265	944.37668	157.86660	1153.55078	1148.57260	-447.44330	1100.31870	936.23307	-387.34273	1127.81489	945.24369	-447.16711	1201.29769	866.23235	-439.90380	1261.04894	758.69518	-401.36059	1231.91223	740.32378	-424.22526	1114.23269	828.30992	-72.99488	1094.84574	829.57402	-279.58443	1121.90507	841.18693	-106.88957	1117.38825	845.60634	-252.08073	
118	1.17000000	1266.39480	474.76977	-63.96470	1321.40396	436.28024	-73.31094	1395.53731	106.11926	-99.16758	1356.47411	56.99173	-140.06634	1519.83963	105.36879	-93.18875	1538.79626	150.58053	-145.97461	996.68717	473.68396	-298.17044	1010.52892	384.68876	-280.08029	860.85818	110.15785	-276.58820	794.72274	82.13575	-239.55099	953.56095	42.33463	-301.79346	999.60355	49.49168	-242.31858	1350.51742	327.30914	-68.99958	1254.09440	418.69458	-38.41592	1274.24494	303.44950	-41.72575	941.92957	420.46677	-327.49131	899.86759	305.33905	-334.19903	1224.44866	716.60251	-7.31675	1263.89334	612.75687	-31.87160	1212.34665	567.73025	-24.51523	1118.42872	674.92573	-8.50319	1159.34063	573.19731	-41.37329	1113.28014	724.11037	-362.60218	1082.67044	594.75205	-328.74611	1004.86990	748.72216	-360.71410	972.13389	626.37765	-307.72686	1216.90177	903.72881	-78.54913	1004.28653	955.46590	-127.25417	1197.29235	901.21683	-297.93349	1001.30140	958.04731	-208.63666	1141.13779	1353.78181	-292.66796	1201.60161	1376.75158	-150.29165	1166.66397	1264.11325	-407.10315	1259.65206	1287.39360	-253.05524	1253.84400	1271.16710	-290.02481	1208.96920	1293.43039	-48.56206	1076.50151	1129.77589	26.62322	1123.75247	1145.35976	70.97507	1180.34047	1071.49142	93.35413	1209.33632	932.76202	128.04301	1186.00917	940.31079	158.88526	1163.84961	1149.03040	-446.12057	1108.14293	937.16782	-387.57544	1136.31774	945.94575	-447.06961	1208.61023	865.82854	-440.31721	1266.53055	757.02874	-402.59219	1237.23361	739.37300	-425.61277	1125.74223	825.89834	-73.44575	1104.86711	827.92228	-279.88416	1133.03477	839.09453	-107.44822	1127.70885	843.69972	-252.65714	
